<svg xmlns="http://www.w3.org/2000/svg" viewBox="0 0 800 600">
  <!-- 배경 -->
  <rect width="800" height="600" fill="#f8f9fa" />
  
  <!-- 제목 -->
  <text x="400" y="50" font-family="Arial" font-size="28" font-weight="bold" text-anchor="middle" fill="#333">함수 호출(Function Calling) 개념도</text>
  
  <!-- 사용자 입력 박스 -->
  <rect x="50" y="100" width="700" height="60" rx="10" ry="10" fill="#e1f5fe" stroke="#29b6f6" stroke-width="2" />
  <text x="400" y="125" font-family="Arial" font-size="16" font-weight="bold" text-anchor="middle" fill="#333">사용자 입력: "서울의 오늘 날씨는 어때?"</text>
  <text x="400" y="145" font-family="Arial" font-size="14" text-anchor="middle" fill="#666">(User Input)</text>
  
  <!-- 화살표 -->
  <line x1="400" y1="160" x2="400" y2="190" stroke="#333" stroke-width="2" />
  <polygon points="400,190 395,180 405,180" fill="#333" />
  
  <!-- LLM 프로세스 박스 -->
  <rect x="150" y="190" width="500" height="80" rx="10" ry="10" fill="#fff3e0" stroke="#ff9800" stroke-width="2" />
  <text x="400" y="220" font-family="Arial" font-size="18" font-weight="bold" text-anchor="middle" fill="#333">대규모 언어 모델 (LLM)</text>
  <text x="400" y="250" font-family="Arial" font-size="14" text-anchor="middle" fill="#666">입력 분석 및 필요한 함수 결정</text>
  
  <!-- 화살표 -->
  <line x1="400" y1="270" x2="400" y2="300" stroke="#333" stroke-width="2" />
  <polygon points="400,300 395,290 405,290" fill="#333" />
  
  <!-- 함수 결정 박스 -->
  <rect x="200" y="300" width="400" height="60" rx="10" ry="10" fill="#e8f5e9" stroke="#66bb6a" stroke-width="2" />
  <text x="400" y="335" font-family="Arial" font-size="16" font-weight="bold" text-anchor="middle" fill="#333">함수 선택: get_weather(location, date)</text>
  
  <!-- 화살표 -->
  <line x1="400" y1="360" x2="400" y2="390" stroke="#333" stroke-width="2" />
  <polygon points="400,390 395,380 405,380" fill="#333" />
  
  <!-- 함수 파라미터 박스 -->
  <rect x="150" y="390" width="500" height="70" rx="10" ry="10" fill="#e3f2fd" stroke="#2196f3" stroke-width="2" />
  <text x="400" y="415" font-family="Arial" font-size="16" font-weight="bold" text-anchor="middle" fill="#333">함수 파라미터 추출</text>
  <text x="400" y="440" font-family="Arial" font-size="14" text-anchor="middle" fill="#666">{"location": "서울", "date": "오늘"}</text>
  
  <!-- 화살표 -->
  <line x1="400" y1="460" x2="400" y2="490" stroke="#333" stroke-width="2" />
  <polygon points="400,490 395,480 405,480" fill="#333" />
  
  <!-- 외부 API 호출 박스 -->
  <rect x="150" y="490" width="500" height="60" rx="10" ry="10" fill="#f3e5f5" stroke="#9c27b0" stroke-width="2" />
  <text x="400" y="525" font-family="Arial" font-size="16" font-weight="bold" text-anchor="middle" fill="#333">외부 API 호출: 날씨 정보 요청</text>
  
  <!-- 데이터 흐름 화살표 -->
  <line x1="150" y1="520" x2="100" y2="520" stroke="#333" stroke-width="2" />
  <line x1="100" y1="520" x2="100" y2="570" stroke="#333" stroke-width="2" />
  <line x1="100" y1="570" x2="650" y2="570" stroke="#333" stroke-width="2" />
  <line x1="650" y1="570" x2="650" y2="520" stroke="#333" stroke-width="2" />
  <line x1="650" y1="520" x2="600" y2="520" stroke="#333" stroke-width="2" />
  <polygon points="600,520 610,515 610,525" fill="#333" />
  
  <!-- 왼쪽: 함수 정의 -->
  <rect x="50" y="200" width="70" height="240" rx="10" ry="10" fill="#f5f5f5" stroke="#9e9e9e" stroke-width="2" transform="rotate(90 50 320)" />
  <text x="90" y="300" font-family="Arial" font-size="14" font-weight="bold" transform="rotate(90 50 320)" text-anchor="middle" fill="#333">함수 정의</text>
  
  <rect x="20" y="180" width="120" height="100" rx="5" ry="5" fill="#fff" stroke="#bdbdbd" stroke-width="1" />
  <text x="80" y="200" font-family="Arial" font-size="12" font-weight="bold" text-anchor="middle" fill="#333">get_weather</text>
  <text x="80" y="220" font-family="Arial" font-size="10" text-anchor="middle" fill="#666">location: string</text>
  <text x="80" y="235" font-family="Arial" font-size="10" text-anchor="middle" fill="#666">date: string</text>
  <line x1="30" y1="245" x2="110" y2="245" stroke="#e0e0e0" stroke-width="1" />
  <text x="80" y="260" font-family="Arial" font-size="10" text-anchor="middle" fill="#666">returns: Weather</text>
  
  <rect x="20" y="290" width="120" height="70" rx="5" ry="5" fill="#fff" stroke="#bdbdbd" stroke-width="1" />
  <text x="80" y="310" font-family="Arial" font-size="12" font-weight="bold" text-anchor="middle" fill="#333">get_forecast</text>
  <text x="80" y="330" font-family="Arial" font-size="10" text-anchor="middle" fill="#666">location: string</text>
  <text x="80" y="345" font-family="Arial" font-size="10" text-anchor="middle" fill="#666">days: number</text>
  
  <!-- 오른쪽: 응답 처리 -->
  <rect x="670" y="200" width="70" height="240" rx="10" ry="10" fill="#f5f5f5" stroke="#9e9e9e" stroke-width="2" transform="rotate(270 670 320)" />
  <text x="600" y="340" font-family="Arial" font-size="14" font-weight="bold" transform="rotate(270 670 320)" text-anchor="middle" fill="#333">응답 처리</text>
  
  <rect x="660" y="180" width="120" height="100" rx="5" ry="5" fill="#fff" stroke="#bdbdbd" stroke-width="1" />
  <text x="720" y="200" font-family="Arial" font-size="12" font-weight="bold" text-anchor="middle" fill="#333">날씨 응답</text>
  <text x="720" y="220" font-family="Arial" font-size="10" text-anchor="middle" fill="#666">온도: 23°C</text>
  <text x="720" y="235" font-family="Arial" font-size="10" text-anchor="middle" fill="#666">상태: 맑음</text>
  <text x="720" y="250" font-family="Arial" font-size="10" text-anchor="middle" fill="#666">습도: 45%</text>
  <text x="720" y="265" font-family="Arial" font-size="10" text-anchor="middle" fill="#666">바람: 북동 3m/s</text>
  
  <rect x="660" y="290" width="120" height="70" rx="5" ry="5" fill="#fff" stroke="#bdbdbd" stroke-width="1" />
  <text x="720" y="310" font-family="Arial" font-size="12" font-weight="bold" text-anchor="middle" fill="#333">자연어 응답</text>
  <text x="720" y="330" font-family="Arial" font-size="10" text-anchor="middle" fill="#666">"서울의 오늘 날씨는</text>
  <text x="720" y="345" font-family="Arial" font-size="10" text-anchor="middle" fill="#666">맑고 23°C입니다."</text>
</svg>
