<svg xmlns="http://www.w3.org/2000/svg" viewBox="0 0 800 600">
  <!-- 배경 -->
  <rect width="800" height="600" fill="#f8f9fa" />
  
  <!-- 제목 -->
  <text x="400" y="50" font-family="Arial" font-size="28" font-weight="bold" text-anchor="middle" fill="#333">추론 최적화(Inference Optimization) 개념도</text>
  
  <!-- 중앙 흐름도 -->
  <rect x="50" y="100" width="700" height="300" rx="15" ry="15" fill="#e3f2fd" stroke="#1976d2" stroke-width="2" />
  
  <!-- 원본 모델 -->
  <rect x="100" y="150" width="140" height="80" rx="10" ry="10" fill="#bbdefb" stroke="#1976d2" stroke-width="2" />
  <text x="170" y="180" font-family="Arial" font-size="16" font-weight="bold" text-anchor="middle" fill="#1976d2">원본 모델</text>
  <text x="170" y="200" font-family="Arial" font-size="12" text-anchor="middle" fill="#333">고정밀도, 대용량</text>
  <text x="170" y="220" font-family="Arial" font-size="12" text-anchor="middle" fill="#333">(수십억 파라미터)</text>
  
  <!-- 모델 최적화 -->
  <rect x="330" y="150" width="140" height="80" rx="10" ry="10" fill="#c8e6c9" stroke="#388e3c" stroke-width="2" />
  <text x="400" y="170" font-family="Arial" font-size="16" font-weight="bold" text-anchor="middle" fill="#388e3c">최적화 기법</text>
  <text x="400" y="190" font-family="Arial" font-size="12" text-anchor="middle" fill="#333">양자화, 가지치기</text>
  <text x="400" y="210" font-family="Arial" font-size="12" text-anchor="middle" fill="#333">지식 증류, 캐싱</text>
  <text x="400" y="230" font-family="Arial" font-size="12" text-anchor="middle" fill="#333">모델 컴파일, 병렬화</text>
  
  <!-- 최적화된 모델 -->
  <rect x="560" y="150" width="140" height="80" rx="10" ry="10" fill="#ffecb3" stroke="#ffa000" stroke-width="2" />
  <text x="630" y="180" font-family="Arial" font-size="16" font-weight="bold" text-anchor="middle" fill="#ffa000">최적화된 모델</text>
  <text x="630" y="200" font-family="Arial" font-size="12" text-anchor="middle" fill="#333">효율적, 경량화</text>
  <text x="630" y="220" font-family="Arial" font-size="12" text-anchor="middle" fill="#333">(빠른 추론 속도)</text>
  
  <!-- 하드웨어 가속 -->
  <rect x="170" y="270" width="460" height="70" rx="10" ry="10" fill="#e0f7fa" stroke="#00acc1" stroke-width="2" />
  <text x="400" y="295" font-family="Arial" font-size="16" font-weight="bold" text-anchor="middle" fill="#00838f">하드웨어 가속</text>
  <text x="250" y="320" font-family="Arial" font-size="12" text-anchor="middle" fill="#333">GPU</text>
  <text x="330" y="320" font-family="Arial" font-size="12" text-anchor="middle" fill="#333">TPU</text>
  <text x="400" y="320" font-family="Arial" font-size="12" text-anchor="middle" fill="#333">NPU</text>
  <text x="470" y="320" font-family="Arial" font-size="12" text-anchor="middle" fill="#333">FPGA</text>
  <text x="550" y="320" font-family="Arial" font-size="12" text-anchor="middle" fill="#333">ASIC</text>
  
  <!-- 연결선 -->
  <line x1="240" y1="190" x2="330" y2="190" stroke="#333" stroke-width="2" />
  <polygon points="330,190 320,185 320,195" fill="#333" />
  
  <line x1="470" y1="190" x2="560" y2="190" stroke="#333" stroke-width="2" />
  <polygon points="560,190 550,185 550,195" fill="#333" />
  
  <line x1="170" y1="230" x2="170" y2="270" stroke="#333" stroke-width="2" stroke-dasharray="5,5" />
  <line x1="630" y1="230" x2="630" y2="270" stroke="#333" stroke-width="2" stroke-dasharray="5,5" />
  
  <!-- 최적화 기법 설명 영역 -->
  <rect x="50" y="420" width="220" height="160" rx="10" ry="10" fill="#e8f5e9" stroke="#388e3c" stroke-width="2" />
  <text x="160" y="445" font-family="Arial" font-size="16" font-weight="bold" text-anchor="middle" fill="#388e3c">양자화 (Quantization)</text>
  <text x="160" y="470" font-family="Arial" font-size="12" text-anchor="middle" fill="#333">FP32 → FP16/INT8/INT4</text>
  <text x="160" y="490" font-family="Arial" font-size="12" text-anchor="middle" fill="#333">정밀도 감소, 메모리 절약</text>
  <text x="160" y="510" font-family="Arial" font-size="12" text-anchor="middle" fill="#333">2-4배 크기 감소</text>
  <text x="160" y="530" font-family="Arial" font-size="12" text-anchor="middle" fill="#333">정확도 손실 최소화</text>
  <text x="160" y="550" font-family="Arial" font-size="12" text-anchor="middle" fill="#333">계산 효율성 향상</text>
  
  <rect x="290" y="420" width="220" height="160" rx="10" ry="10" fill="#e8f5e9" stroke="#388e3c" stroke-width="2" />
  <text x="400" y="445" font-family="Arial" font-size="16" font-weight="bold" text-anchor="middle" fill="#388e3c">가지치기 (Pruning)</text>
  <text x="400" y="470" font-family="Arial" font-size="12" text-anchor="middle" fill="#333">중요도 낮은 가중치 제거</text>
  <text x="400" y="490" font-family="Arial" font-size="12" text-anchor="middle" fill="#333">모델 희소성 증가</text>
  <text x="400" y="510" font-family="Arial" font-size="12" text-anchor="middle" fill="#333">구조적/비구조적 가지치기</text>
  <text x="400" y="530" font-family="Arial" font-size="12" text-anchor="middle" fill="#333">2-10배 크기 감소</text>
  <text x="400" y="550" font-family="Arial" font-size="12" text-anchor="middle" fill="#333">연산량 감소</text>
  
  <rect x="530" y="420" width="220" height="160" rx="10" ry="10" fill="#e8f5e9" stroke="#388e3c" stroke-width="2" />
  <text x="640" y="445" font-family="Arial" font-size="16" font-weight="bold" text-anchor="middle" fill="#388e3c">지식 증류 (Distillation)</text>
  <text x="640" y="470" font-family="Arial" font-size="12" text-anchor="middle" fill="#333">교사 모델 → 학생 모델</text>
  <text x="640" y="490" font-family="Arial" font-size="12" text-anchor="middle" fill="#333">작은 모델로 지식 전달</text>
  <text x="640" y="510" font-family="Arial" font-size="12" text-anchor="middle" fill="#333">크기 2-10배 감소</text>
  <text x="640" y="530" font-family="Arial" font-size="12" text-anchor="middle" fill="#333">성능 최대한 유지</text>
  <text x="640" y="550" font-family="Arial" font-size="12" text-anchor="middle" fill="#333">DistilBERT, TinyBERT</text>
  
  <!-- 최적화 목표 -->
  <rect x="50" y="360" width="700" height="40" rx="5" ry="5" fill="#f5f5f5" stroke="#9e9e9e" stroke-width="1" />
  <text x="400" y="385" font-family="Arial" font-size="16" font-weight="bold" text-anchor="middle" fill="#333">최적화 목표: 지연 시간 감소, 처리량 증가, 메모리 사용량 감소, 전력 효율성 향상</text>
</svg>
