<svg xmlns="http://www.w3.org/2000/svg" viewBox="0 0 800 600">
  <!-- 배경 -->
  <rect width="800" height="600" fill="#f8f9fa" />
  
  <!-- 제목 -->
  <text x="400" y="50" font-family="Arial" font-size="28" font-weight="bold" text-anchor="middle" fill="#333">RLHF(Reinforcement Learning from Human Feedback) 개념도</text>
  
  <!-- 초기 사전 훈련 모델 영역 -->
  <rect x="60" y="120" width="680" height="80" rx="15" ry="15" fill="#e3f2fd" stroke="#1976d2" stroke-width="2" />
  <text x="400" y="165" font-family="Arial" font-size="18" font-weight="bold" text-anchor="middle" fill="#1976d2">1단계: 사전 훈련된 언어 모델 (Pre-trained LM)</text>
  
  <!-- 지도 미세 조정 영역 -->
  <rect x="60" y="220" width="680" height="100" rx="15" ry="15" fill="#fff3e0" stroke="#f57c00" stroke-width="2" />
  <text x="400" y="250" font-family="Arial" font-size="18" font-weight="bold" text-anchor="middle" fill="#f57c00">2단계: 지도 미세 조정 (Supervised Fine-tuning)</text>
  
  <!-- 지도 미세 조정 세부 요소 -->
  <rect x="100" y="270" width="180" height="40" rx="5" ry="5" fill="#ffe0b2" stroke="#f57c00" stroke-width="1" />
  <text x="190" y="295" font-family="Arial" font-size="14" text-anchor="middle" fill="#333">데모 데이터</text>
  
  <rect x="330" y="270" width="180" height="40" rx="5" ry="5" fill="#ffe0b2" stroke="#f57c00" stroke-width="1" />
  <text x="420" y="295" font-family="Arial" font-size="14" text-anchor="middle" fill="#333">지도 학습</text>
  
  <rect x="560" y="270" width="140" height="40" rx="5" ry="5" fill="#ffe0b2" stroke="#f57c00" stroke-width="1" />
  <text x="630" y="295" font-family="Arial" font-size="14" text-anchor="middle" fill="#333">SFT 모델</text>
  
  <!-- 보상 모델 영역 -->
  <rect x="60" y="340" width="680" height="100" rx="15" ry="15" fill="#e8f5e9" stroke="#388e3c" stroke-width="2" />
  <text x="400" y="370" font-family="Arial" font-size="18" font-weight="bold" text-anchor="middle" fill="#388e3c">3단계: 보상 모델 학습 (Reward Model Training)</text>
  
  <!-- 보상 모델 세부 요소 -->
  <rect x="100" y="390" width="180" height="40" rx="5" ry="5" fill="#c8e6c9" stroke="#388e3c" stroke-width="1" />
  <text x="190" y="415" font-family="Arial" font-size="14" text-anchor="middle" fill="#333">인간 선호도 데이터</text>
  
  <rect x="330" y="390" width="180" height="40" rx="5" ry="5" fill="#c8e6c9" stroke="#388e3c" stroke-width="1" />
  <text x="420" y="415" font-family="Arial" font-size="14" text-anchor="middle" fill="#333">비교 학습</text>
  
  <rect x="560" y="390" width="140" height="40" rx="5" ry="5" fill="#c8e6c9" stroke="#388e3c" stroke-width="1" />
  <text x="630" y="415" font-family="Arial" font-size="14" text-anchor="middle" fill="#333">보상 모델</text>
  
  <!-- 강화 학습 영역 -->
  <rect x="60" y="460" width="680" height="100" rx="15" ry="15" fill="#e1f5fe" stroke="#0288d1" stroke-width="2" />
  <text x="400" y="490" font-family="Arial" font-size="18" font-weight="bold" text-anchor="middle" fill="#0288d1">4단계: 강화 학습 최적화 (RL Optimization)</text>
  
  <!-- 강화 학습 세부 요소 -->
  <rect x="100" y="510" width="120" height="40" rx="5" ry="5" fill="#b3e5fc" stroke="#0288d1" stroke-width="1" />
  <text x="160" y="535" font-family="Arial" font-size="14" text-anchor="middle" fill="#333">SFT 모델</text>
  
  <rect x="250" y="510" width="120" height="40" rx="5" ry="5" fill="#b3e5fc" stroke="#0288d1" stroke-width="1" />
  <text x="310" y="535" font-family="Arial" font-size="14" text-anchor="middle" fill="#333">보상 모델</text>
  
  <rect x="400" y="510" width="140" height="40" rx="5" ry="5" fill="#b3e5fc" stroke="#0288d1" stroke-width="1" />
  <text x="470" y="535" font-family="Arial" font-size="14" text-anchor="middle" fill="#333">PPO 알고리즘</text>
  
  <rect x="570" y="510" width="130" height="40" rx="5" ry="5" fill="#b3e5fc" stroke="#0288d1" stroke-width="1" />
  <text x="635" y="535" font-family="Arial" font-size="14" text-anchor="middle" fill="#333">RLHF 모델</text>
  
  <!-- 화살표: 사전 훈련 -> 지도 미세 조정 -->
  <line x1="400" y1="200" x2="400" y2="220" stroke="#1976d2" stroke-width="2" />
  <polygon points="400,220 395,210 405,210" fill="#1976d2" />
  
  <!-- 지도 미세 조정 내부 화살표 -->
  <line x1="280" y1="290" x2="330" y2="290" stroke="#f57c00" stroke-width="2" />
  <polygon points="330,290 320,285 320,295" fill="#f57c00" />
  
  <line x1="510" y1="290" x2="560" y2="290" stroke="#f57c00" stroke-width="2" />
  <polygon points="560,290 550,285 550,295" fill="#f57c00" />
  
  <!-- 화살표: 지도 미세 조정 -> 보상 모델 학습 -->
  <line x1="400" y1="320" x2="400" y2="340" stroke="#f57c00" stroke-width="2" />
  <polygon points="400,340 395,330 405,330" fill="#f57c00" />
  
  <!-- 보상 모델 내부 화살표 -->
  <line x1="280" y1="410" x2="330" y2="410" stroke="#388e3c" stroke-width="2" />
  <polygon points="330,410 320,405 320,415" fill="#388e3c" />
  
  <line x1="510" y1="410" x2="560" y2="410" stroke="#388e3c" stroke-width="2" />
  <polygon points="560,410 550,405 550,415" fill="#388e3c" />
  
  <!-- 화살표: 보상 모델 학습 -> 강화 학습 -->
  <line x1="400" y1="440" x2="400" y2="460" stroke="#388e3c" stroke-width="2" />
  <polygon points="400,460 395,450 405,450" fill="#388e3c" />
  
  <!-- 강화 학습 내부 화살표 -->
  <line x1="220" y1="530" x2="250" y2="530" stroke="#0288d1" stroke-width="2" />
  <polygon points="250,530 240,525 240,535" fill="#0288d1" />
  
  <line x1="370" y1="530" x2="400" y2="530" stroke="#0288d1" stroke-width="2" />
  <polygon points="400,530 390,525 390,535" fill="#0288d1" />
  
  <line x1="540" y1="530" x2="570" y2="530" stroke="#0288d1" stroke-width="2" />
  <polygon points="570,530 560,525 560,535" fill="#0288d1" />
  
  <!-- 인간 피드백 그림 -->
  <ellipse cx="130" y="340" width="20" height="20" rx="10" ry="10" fill="#f06292" stroke="#c2185b" stroke-width="1" />
  <ellipse cx="130" y="340" width="5" height="5" rx="2.5" ry="2.5" fill="#c2185b" />
  <line x1="130" y1="350" x2="130" y2="360" stroke="#c2185b" stroke-width="1" />
  <line x1="130" y1="360" x2="120" y2="370" stroke="#c2185b" stroke-width="1" />
  <line x1="130" y1="360" x2="140" y2="370" stroke="#c2185b" stroke-width="1" />
  <line x1="130" y1="350" x2="120" y2="358" stroke="#c2185b" stroke-width="1" />
  <line x1="130" y1="350" x2="140" y2="358" stroke="#c2185b" stroke-width="1" />
  
  <text x="155" y="355" font-family="Arial" font-size="12" text-anchor="start" fill="#c2185b">인간 피드백</text>
  <path d="M160,370 Q180,390 200,370" stroke="#c2185b" stroke-width="1" fill="none" />
  <polygon points="200,370 190,370 195,380" fill="#c2185b" />
</svg>
